<?xml version="1.0" encoding="UTF-8" standalone="no"?>
<!-- Created with Inkscape (http://www.inkscape.org/) -->

<svg
   width="512"
   height="128"
   viewBox="0 0 135.46667 33.866667"
   version="1.1"
   id="svg5"
   xml:space="preserve"
   inkscape:version="1.2 (dc2aedaf03, 2022-05-15)"
   sodipodi:docname="SensorNet Decode Header.svg"
   xmlns:inkscape="http://www.inkscape.org/namespaces/inkscape"
   xmlns:sodipodi="http://sodipodi.sourceforge.net/DTD/sodipodi-0.dtd"
   xmlns="http://www.w3.org/2000/svg"
   xmlns:svg="http://www.w3.org/2000/svg"><sodipodi:namedview
     id="namedview7"
     pagecolor="#252526"
     bordercolor="#000000"
     borderopacity="0.25"
     inkscape:showpageshadow="2"
     inkscape:pageopacity="0"
     inkscape:pagecheckerboard="0"
     inkscape:deskcolor="#d1d1d1"
     inkscape:document-units="mm"
     showgrid="false"
     inkscape:zoom="1.8852929"
     inkscape:cx="304.9924"
     inkscape:cy="128.36202"
     inkscape:window-width="1920"
     inkscape:window-height="1017"
     inkscape:window-x="-8"
     inkscape:window-y="-8"
     inkscape:window-maximized="1"
     inkscape:current-layer="Layer_1-2" /><defs
     id="defs2"><rect
       x="15.382225"
       y="82.745763"
       width="451.91917"
       height="64.879837"
       id="rect335" /><style
       id="style31">.cls-1,.cls-3{fill:#cd9f26;}.cls-2{fill:#fff;}.cls-3{font-size:66.93px;font-family:SairaCondensed-ExtraLight, Saira Condensed;letter-spacing:-0.02em;}</style><style
       id="style246">.cls-1,.cls-3{fill:#cd9f26;}.cls-2{fill:#fff;}.cls-3{font-size:66.93px;font-family:SairaCondensed-ExtraLight, Saira Condensed;letter-spacing:-0.02em;}</style></defs><g
     inkscape:label="Layer 1"
     inkscape:groupmode="layer"
     id="layer1"><g
       id="Layer_1-2"
       data-name="Layer 1"
       transform="matrix(0.26458333,0,0,0.26458333,6.9549438,6.7729057)"><g
         id="Layer_1-2-1"
         data-name="Layer 1"
         transform="matrix(0.72480182,0,0,0.72480182,88.378077,-21.591136)"><path
           class="cls-1"
           d="m 0,88.29 c 6.23,-4 12.54,-7.81 18.89,-11.53 3.17,-1.88 6.37,-3.7 9.55,-5.54 3.18,-1.84 6.4,-3.63 9.61,-5.41 Q 57.33,55.07 76.92,45 c 13,-6.74 26.21,-13.24 39.43,-19.64 13.22,-6.4 26.53,-12.57 39.93,-18.6 l 15,-6.77 -8,14.05 -5.4,9.44 -5.47,9.4 -5.55,9.36 -5.63,9.32 c -3.79,6.19 -7.6,12.37 -11.52,18.49 -3.92,6.12 -7.9,12.22 -12,18.23 2.69,-6.79 5.52,-13.49 8.43,-20.15 2.91,-6.66 5.86,-13.26 8.86,-19.86 l 4.6,-9.87 4.69,-9.82 4.76,-9.78 4.82,-9.75 7,7.28 Q 141.34,26.47 121.54,36.1 C 108.32,42.48 95.05,48.78 81.67,54.83 68.29,60.88 54.83,66.76 41.24,72.39 37.85,73.81 34.43,75.18 31.03,76.57 27.63,77.96 24.2,79.3 20.76,80.63 13.9,83.3 7,85.87 0,88.29 Z"
           id="path252" /><path
           class="cls-2"
           d="m 20.64,26.9 h 21.89 q 6.15,0 9.3,1.8 a 8.77,8.77 0 0 1 4.17,5.09 30,30 0 0 1 1,8.77 30.31,30.31 0 0 1 -1,8.43 9,9 0 0 1 -4.15,5.22 q -3.18,1.93 -9.4,1.94 H 32.29 V 72.94 H 20.64 Z m 17.07,22 a 20.86,20.86 0 0 0 5.09,-0.44 2.78,2.78 0 0 0 2,-1.67 13.16,13.16 0 0 0 0.47,-4.18 13.19,13.19 0 0 0 -0.47,-4.19 2.77,2.77 0 0 0 -2,-1.67 20.7,20.7 0 0 0 -5.12,-0.44 h -5.39 v 12.54 z"
           id="path254" /><path
           class="cls-2"
           d="m 62.78,72.28 v -9.1 Q 71,64 76.57,64 a 35.35,35.35 0 0 0 5,-0.26 5.35,5.35 0 0 0 2.48,-0.87 2.27,2.27 0 0 0 0.83,-1.31 10.89,10.89 0 0 0 0.17,-2.17 A 7.65,7.65 0 0 0 84.8,57 1.7,1.7 0 0 0 83.73,56 14.56,14.56 0 0 0 80.92,55.43 l -8.5,-1.07 A 14.47,14.47 0 0 1 65.49,52 a 8.7,8.7 0 0 1 -3.21,-4.58 25,25 0 0 1 -0.83,-7 q 0,-6 2.2,-9 a 10.22,10.22 0 0 1 5.93,-4 38.17,38.17 0 0 1 9.47,-1 c 2.81,0 5.38,0.11 7.73,0.33 2.35,0.22 4.89,0.58 7.66,1.07 v 8.9 a 124.93,124.93 0 0 0 -13,-0.87 q -5.36,0 -7,0.81 a 1.9,1.9 0 0 0 -1.11,1.13 7.51,7.51 0 0 0 -0.23,2.08 8.6,8.6 0 0 0 0.23,2.37 1.61,1.61 0 0 0 1,1 13.46,13.46 0 0 0 2.71,0.57 l 9.77,1.2 a 16.41,16.41 0 0 1 4.85,1.21 7.32,7.32 0 0 1 3.18,2.94 q 1.93,2.88 1.94,9.17 0,6.56 -2.07,9.87 a 9.58,9.58 0 0 1 -5.56,4.32 33.41,33.41 0 0 1 -9,1 117.38,117.38 0 0 1 -17.37,-1.24 z"
           id="path256" /><path
           class="cls-2"
           d="m 101.72,26.9 h 21.89 q 6.15,0 9.3,1.8 a 8.8,8.8 0 0 1 4.18,5.09 30,30 0 0 1 1,8.77 30.69,30.69 0 0 1 -1,8.43 9,9 0 0 1 -4.09,5.22 c -2.12,1.29 -5.26,1.94 -9.4,1.94 h -10.23 v 14.79 h -11.65 z m 17.07,22 a 20.71,20.71 0 0 0 5.08,-0.44 2.78,2.78 0 0 0 2,-1.67 13.16,13.16 0 0 0 0.47,-4.18 13.19,13.19 0 0 0 -0.47,-4.19 2.77,2.77 0 0 0 -2,-1.67 20.75,20.75 0 0 0 -5.12,-0.44 h -5.42 v 12.54 z"
           id="path258" /><text
           class="cls-3"
           transform="translate(166.16,72.91)"
           id="text260">Liquids</text></g><text
         xml:space="preserve"
         transform="matrix(1.4394498,0,0,1.4394498,-117.9161,-80.131547)"
         id="text333"
         style="font-size:37.3333px;white-space:pre;shape-inside:url(#rect335);display:inline;fill:#000000"
         x="187.84375"
         y="0"><tspan
           x="67.005737"
           y="116.8064"
           id="tspan437"><tspan
             style="font-weight:500;font-size:32px;font-family:Saira;-inkscape-font-specification:'Saira Medium';text-align:center;text-anchor:middle;fill:#ffffff"
             id="tspan435">CMS SensorNet Decode</tspan></tspan></text></g></g></svg>
