<svg xmlns="http://www.w3.org/2000/svg" viewBox="0 0 301.39 155.32"><defs><style>.cls-1{fill:#cd9f26;}.cls-2{fill:#fff;}</style></defs><title>PSP-2Color-Reversed</title><g id="Layer_2" data-name="Layer 2"><g id="Layer_1-2" data-name="Layer 1"><path class="cls-1" d="M0,155.32c11-7,22.05-13.73,33.23-20.28,5.58-3.3,11.2-6.5,16.81-9.74s11.25-6.4,16.91-9.53q33.9-18.88,68.37-36.59c23-11.86,46.12-23.29,69.36-34.55s46.69-22.11,70.25-32.72L301.39,0,287.24,24.71l-9.51,16.61-9.62,16.54-9.76,16.47-9.9,16.39c-6.68,10.89-13.38,21.77-20.28,32.54S214.28,144.75,207,155.32c4.72-11.93,9.7-23.73,14.83-35.44s10.4-23.36,15.72-35l8.1-17.35,8.24-17.28,8.38-17.21,8.49-17.15,12.31,12.8Q248.66,46.57,213.81,63.5c-23.25,11.24-46.59,22.31-70.13,33s-47.23,21-71.13,30.9c-6,2.5-12,4.9-18,7.35s-12,4.81-18.07,7.13C24.45,146.54,12.29,151.08,0,155.32Z"/><path class="cls-2" d="M36.32,47.32h38.5q10.83,0,16.36,3.18a15.43,15.43,0,0,1,7.36,8.94q1.83,5.78,1.83,15.43A53.35,53.35,0,0,1,98.66,89.7a15.79,15.79,0,0,1-7.3,9.18q-5.6,3.42-16.54,3.42h-18v26H36.32Zm30,38.61a36.78,36.78,0,0,0,9-.76,4.89,4.89,0,0,0,3.53-2.94,23,23,0,0,0,.83-7.36,22.94,22.94,0,0,0-.83-7.36,4.9,4.9,0,0,0-3.47-3,36.69,36.69,0,0,0-9-.76H56.8V85.93Z"/><path class="cls-2" d="M110.45,127.17v-16q14.37,1.42,24.26,1.42a62.93,62.93,0,0,0,8.83-.47,9.23,9.23,0,0,0,4.35-1.54,4,4,0,0,0,1.48-2.29,19.62,19.62,0,0,0,.29-3.83,13.77,13.77,0,0,0-.47-4.24,3,3,0,0,0-1.89-1.82,25.5,25.5,0,0,0-4.94-1l-15-1.89q-8-.93-12.19-4.06a15.25,15.25,0,0,1-5.65-8.06A44.11,44.11,0,0,1,108.1,71q0-10.49,3.88-15.9A18.08,18.08,0,0,1,122.4,48a67.41,67.41,0,0,1,16.66-1.71q7.42,0,13.6.59t13.48,1.88V64.41a219.76,219.76,0,0,0-23-1.53q-9.42,0-12.24,1.41a3.35,3.35,0,0,0-1.94,2,12.36,12.36,0,0,0-.42,3.65,14.53,14.53,0,0,0,.42,4.18,2.8,2.8,0,0,0,1.76,1.76,23.58,23.58,0,0,0,4.77,1L152.72,79a28.84,28.84,0,0,1,8.54,2.12,12.86,12.86,0,0,1,5.59,5.18q3.41,5.07,3.41,16.13,0,11.53-3.65,17.37a16.81,16.81,0,0,1-9.77,7.59A58.7,58.7,0,0,1,141,129.17,207.58,207.58,0,0,1,110.45,127.17Z"/><path class="cls-2" d="M179,47.32h38.5q10.83,0,16.36,3.18a15.43,15.43,0,0,1,7.36,8.94Q243,65.22,243,74.87a53.77,53.77,0,0,1-1.7,14.83,15.83,15.83,0,0,1-7.3,9.18q-5.59,3.42-16.54,3.42h-18v26H179Zm30,38.61a36.78,36.78,0,0,0,9-.76,4.89,4.89,0,0,0,3.53-2.94,23.09,23.09,0,0,0,.82-7.36,23,23,0,0,0-.82-7.36,4.9,4.9,0,0,0-3.47-3,36.69,36.69,0,0,0-9-.76h-9.54V85.93Z"/></g></g></svg>