<svg xmlns="http://www.w3.org/2000/svg" viewBox="0 0 321.3 95.13"><defs><style>.cls-1,.cls-3{fill:#cd9f26;}.cls-2{fill:#252526;}.cls-3{font-size:66.93px;font-family:SairaCondensed-ExtraLight, Saira Condensed;letter-spacing:-0.02em;}</style></defs><title>PSP-Liquids-2Color</title><g id="Layer_2" data-name="Layer 2"><g id="Layer_1-2" data-name="Layer 1"><path class="cls-1" d="M0,88.29c6.23-4,12.54-7.81,18.89-11.53,3.17-1.88,6.37-3.7,9.55-5.54s6.4-3.63,9.61-5.41Q57.33,55.07,76.92,45c13-6.74,26.21-13.24,39.43-19.64s26.53-12.57,39.93-18.6l15-6.77-8,14.05-5.4,9.44-5.47,9.4-5.55,9.36-5.63,9.32c-3.79,6.19-7.6,12.37-11.52,18.49s-7.9,12.22-12,18.23c2.69-6.79,5.52-13.49,8.43-20.15S132,54.87,135,48.27l4.6-9.87,4.69-9.82,4.76-9.78,4.82-9.75,7,7.28Q141.34,26.47,121.54,36.1c-13.22,6.38-26.49,12.68-39.87,18.73S54.83,66.76,41.24,72.39c-3.39,1.42-6.81,2.79-10.21,4.18S24.2,79.3,20.76,80.63C13.9,83.3,7,85.87,0,88.29Z"/><path class="cls-2" d="M20.64,26.9H42.53q6.15,0,9.3,1.8A8.77,8.77,0,0,1,56,33.79a30,30,0,0,1,1,8.77,30.31,30.31,0,0,1-1,8.43,9,9,0,0,1-4.15,5.22q-3.18,1.93-9.4,1.94H32.29V72.94H20.64Zm17.07,22a20.86,20.86,0,0,0,5.09-.44,2.78,2.78,0,0,0,2-1.67,13.16,13.16,0,0,0,.47-4.18,13.19,13.19,0,0,0-.47-4.19,2.77,2.77,0,0,0-2-1.67,20.7,20.7,0,0,0-5.12-.44H32.29V48.85Z"/><path class="cls-2" d="M62.78,72.28v-9.1Q71,64,76.57,64a35.35,35.35,0,0,0,5-.26,5.35,5.35,0,0,0,2.48-.87,2.27,2.27,0,0,0,.83-1.31,10.89,10.89,0,0,0,.17-2.17A7.65,7.65,0,0,0,84.8,57a1.7,1.7,0,0,0-1.07-1,14.56,14.56,0,0,0-2.81-.57l-8.5-1.07A14.47,14.47,0,0,1,65.49,52a8.7,8.7,0,0,1-3.21-4.58,25,25,0,0,1-.83-7q0-6,2.2-9a10.22,10.22,0,0,1,5.93-4,38.17,38.17,0,0,1,9.47-1c2.81,0,5.38.11,7.73.33s4.89.58,7.66,1.07v8.9a124.93,124.93,0,0,0-13-.87q-5.36,0-7,.81a1.9,1.9,0,0,0-1.11,1.13,7.51,7.51,0,0,0-.23,2.08,8.6,8.6,0,0,0,.23,2.37,1.61,1.61,0,0,0,1,1,13.46,13.46,0,0,0,2.71.57l9.77,1.2a16.41,16.41,0,0,1,4.85,1.21,7.32,7.32,0,0,1,3.18,2.94q1.93,2.88,1.94,9.17,0,6.56-2.07,9.87a9.58,9.58,0,0,1-5.56,4.32,33.41,33.41,0,0,1-9,1A117.38,117.38,0,0,1,62.78,72.28Z"/><path class="cls-2" d="M101.72,26.9h21.89q6.15,0,9.3,1.8a8.8,8.8,0,0,1,4.18,5.09,30,30,0,0,1,1,8.77,30.69,30.69,0,0,1-1,8.43A9,9,0,0,1,133,56.21c-2.12,1.29-5.26,1.94-9.4,1.94H113.37V72.94H101.72Zm17.07,22a20.71,20.71,0,0,0,5.08-.44,2.78,2.78,0,0,0,2-1.67,13.16,13.16,0,0,0,.47-4.18,13.19,13.19,0,0,0-.47-4.19,2.77,2.77,0,0,0-2-1.67,20.75,20.75,0,0,0-5.12-.44h-5.42V48.85Z"/><text class="cls-3" transform="translate(166.16 72.91)">Liquids</text></g></g></svg>